<mxfile host="65bd71144e">
    <diagram name="SVG System Manager UML" id="0">
        <mxGraphModel dx="1612" dy="1492" grid="1" gridSize="10" guides="1" tooltips="1" connect="1" arrows="1" fold="1" page="1" pageScale="1" pageWidth="827" pageHeight="1169" math="0" shadow="0">
            <root>
                <mxCell id="0"/>
                <mxCell id="1" parent="0"/>
                <mxCell id="7" value="SVGElementFactory" style="swimlane;html=1;whiteSpace=wrap;container=1;" parent="1" vertex="1">
                    <mxGeometry x="-380" y="640" width="200" height="120" as="geometry"/>
                </mxCell>
                <mxCell id="8" value="" style="part=1;html=1;whiteSpace=wrap;container=1;" parent="7" vertex="1" connectable="0">
                    <mxGeometry y="26" width="200" height="40" as="geometry"/>
                </mxCell>
                <mxCell id="9" value="- svgNS: string" style="text;html=1;whiteSpace=wrap;" parent="8" vertex="1" connectable="0">
                    <mxGeometry width="200" height="40" as="geometry"/>
                </mxCell>
                <mxCell id="10" value="" style="part=1;html=1;whiteSpace=wrap;container=1;" parent="7" vertex="1" connectable="0">
                    <mxGeometry y="66" width="200" height="54" as="geometry"/>
                </mxCell>
                <mxCell id="11" value="+ createElement(type: string, attributes: Object): SVGElement" style="text;html=1;whiteSpace=wrap;" parent="10" vertex="1" connectable="0">
                    <mxGeometry width="200" height="54" as="geometry"/>
                </mxCell>
                <mxCell id="12" value="CrossShapeStrategy" style="swimlane;html=1;whiteSpace=wrap;container=1;" parent="1" vertex="1">
                    <mxGeometry x="-70" y="470" width="200" height="120" as="geometry"/>
                </mxCell>
                <mxCell id="13" value="" style="part=1;html=1;whiteSpace=wrap;container=1;" parent="12" vertex="1" connectable="0">
                    <mxGeometry y="26" width="200" height="40" as="geometry"/>
                </mxCell>
                <mxCell id="14" value="- factory: SVGElementFactory" style="text;html=1;whiteSpace=wrap;" parent="13" vertex="1" connectable="0">
                    <mxGeometry width="200" height="40" as="geometry"/>
                </mxCell>
                <mxCell id="15" value="" style="part=1;html=1;whiteSpace=wrap;container=1;" parent="12" vertex="1" connectable="0">
                    <mxGeometry y="66" width="200" height="54" as="geometry"/>
                </mxCell>
                <mxCell id="16" value="+ create(x: number, y: number): SVGElement" style="text;html=1;whiteSpace=wrap;" parent="15" vertex="1" connectable="0">
                    <mxGeometry width="200" height="54" as="geometry"/>
                </mxCell>
                <mxCell id="17" value="PolylineStrategy" style="swimlane;html=1;whiteSpace=wrap;container=1;" parent="1" vertex="1">
                    <mxGeometry x="280" y="276" width="200" height="140" as="geometry"/>
                </mxCell>
                <mxCell id="18" value="" style="part=1;html=1;whiteSpace=wrap;container=1;" parent="17" vertex="1" connectable="0">
                    <mxGeometry y="26" width="200" height="40" as="geometry"/>
                </mxCell>
                <mxCell id="19" value="- factory: SVGElementFactory" style="text;html=1;whiteSpace=wrap;" parent="18" vertex="1" connectable="0">
                    <mxGeometry width="200" height="40" as="geometry"/>
                </mxCell>
                <mxCell id="20" value="" style="part=1;html=1;whiteSpace=wrap;container=1;" parent="17" vertex="1" connectable="0">
                    <mxGeometry y="66" width="200" height="54" as="geometry"/>
                </mxCell>
                <mxCell id="21" value="+ create(id: number, y: number, incrementX: number, className: string, textContent: string): { polyline: SVGElement, text: SVGElement }" style="text;html=1;whiteSpace=wrap;" parent="20" vertex="1" connectable="0">
                    <mxGeometry width="200" height="54" as="geometry"/>
                </mxCell>
                <mxCell id="22" style="edgeStyle=orthogonalEdgeStyle;rounded=0;orthogonalLoop=1;jettySize=auto;html=1;exitX=0.5;exitY=1;exitDx=0;exitDy=0;entryX=0.5;entryY=0;entryDx=0;entryDy=0;" parent="1" source="2" target="7" edge="1">
                    <mxGeometry relative="1" as="geometry"/>
                </mxCell>
                <mxCell id="23" style="edgeStyle=orthogonalEdgeStyle;rounded=0;orthogonalLoop=1;jettySize=auto;html=1;exitX=0.5;exitY=1;exitDx=0;exitDy=0;entryX=0.5;entryY=0;entryDx=0;entryDy=0;" parent="1" source="2" target="12" edge="1">
                    <mxGeometry relative="1" as="geometry"/>
                </mxCell>
                <mxCell id="24" style="edgeStyle=orthogonalEdgeStyle;rounded=0;orthogonalLoop=1;jettySize=auto;html=1;exitX=0.5;exitY=1;exitDx=0;exitDy=0;entryX=0.5;entryY=0;entryDx=0;entryDy=0;" parent="1" source="2" target="17" edge="1">
                    <mxGeometry relative="1" as="geometry"/>
                </mxCell>
                <mxCell id="25" style="edgeStyle=orthogonalEdgeStyle;rounded=0;orthogonalLoop=1;jettySize=auto;html=1;exitX=0.5;exitY=1;exitDx=0;exitDy=0;entryX=0.5;entryY=0;entryDx=0;entryDy=0;" parent="1" source="12" target="7" edge="1">
                    <mxGeometry relative="1" as="geometry"/>
                </mxCell>
                <mxCell id="26" style="edgeStyle=orthogonalEdgeStyle;rounded=0;orthogonalLoop=1;jettySize=auto;html=1;exitX=0.5;exitY=1;exitDx=0;exitDy=0;entryX=0.5;entryY=0;entryDx=0;entryDy=0;" parent="1" source="17" target="7" edge="1">
                    <mxGeometry relative="1" as="geometry">
                        <Array as="points">
                            <mxPoint x="380" y="450"/>
                            <mxPoint x="-280" y="450"/>
                        </Array>
                    </mxGeometry>
                </mxCell>
                <mxCell id="2" value="SVGSystemManager" style="swimlane;html=1;whiteSpace=wrap;container=1;" parent="1" vertex="1">
                    <mxGeometry x="10" y="-120" width="290" height="340" as="geometry"/>
                </mxCell>
                <mxCell id="3" value="" style="part=1;html=1;whiteSpace=wrap;container=1;" parent="2" vertex="1" connectable="0">
                    <mxGeometry y="26" width="200" height="140" as="geometry"/>
                </mxCell>
                <mxCell id="4" value="- svgNS: string&#10;- svgRoot: HTMLElement&#10;- factory: SVGElementFactory&#10;- crossShapeStrategy: CrossShapeStrategy&#10;- polylineStrategy: PolylineStrategy&#10;- idMap: Object" style="text;html=1;whiteSpace=wrap;" parent="3" vertex="1" connectable="0">
                    <mxGeometry width="200" height="140" as="geometry"/>
                </mxCell>
                <mxCell id="5" value="" style="part=1;html=1;whiteSpace=wrap;container=1;" parent="2" vertex="1" connectable="0">
                    <mxGeometry y="170" width="290" height="160" as="geometry"/>
                </mxCell>
                <mxCell id="6" value="+ createX(x: number, y: number): void&#10;+ createXs(xAttributes: Array&lt;[number, number]&gt;): void&#10;+ createPolylines(startY: number, incrementX: number, numLines: number, lineAttributes: Array&lt;[string, any]&gt;): void&#10;+ changeClass(lineId: string, newClass: string): void" style="text;html=1;whiteSpace=wrap;" parent="5" vertex="1" connectable="0">
                    <mxGeometry width="290" height="160" as="geometry"/>
                </mxCell>
            </root>
        </mxGraphModel>
    </diagram>
</mxfile>